#!OML:ASF E:\acrobat2\Project_11_07_03\Capture day 1\Session 1\Acrobat.ASF
:FULLY-SPECIFIED
:DEGREES
2131
root 11.1529 4.15172 10.6304 -82.5439 2.91446 168.791
lowerback -12.6542764126201 -3.498149152111638 -4.32255986215362
upperback -7.78793899297697 -8.855668033452472 10.62349832564907
thorax -1.8856466251061008 -6.413172835531925 11.2193072255258
lowerneck -3.8086201528910713 -17.411369613476587 14.250423617255239
upperneck -30.915893908627933 -22.861998445732723 2.098854695137739
head -13.159912840367038 -6.8791371274196 -2.499892291436409
rclavicle 2.38542e-15 -1.58034e-14
rhumerus -5.992587028221304 -21.334212879502985 35.00903543237945
rradius 60.61835189757792
rwrist -27.72602480665316
rhand -27.313193448948027 -36.55108843720618
rfingers 5.479127803280754
rthumb 6.760093683773915 -69.1036342682886
lclavicle 2.38542e-15 -1.58034e-14
lhumerus 5.949342368324924 32.8626626131929 -46.30052160998802
lradius 58.544631987549465
lwrist 28.46784451292846
lhand -14.926902447373397 -30.151532652115023
lfingers 9.712856507203508
lthumb 9.172051019979364 -4.780369208475607
rfemur 1.2724360177100045 2.9197806612887076 -0.22974148609891987
rtibia 54.07076438772533
rfoot 6.616381777709424 -15.237678257170147
rtoes 31.0463909353491
lfemur -13.133508456438504 -10.189273365802102 -3.1668905608478752
ltibia 48.231925199300655
lfoot 47.77637423009287 16.061173077481126
ltoes 4.47688
2132
root 11.1529 4.15172 10.6304 -82.5439 2.91446 168.791
lowerback -12.648651882265629 -3.41187427791094 -4.376774394281181
upperback -7.887909028679948 -8.930022262352269 10.711287618797506
thorax -1.9737171197991754 -6.321894257809746 11.2893442883314
lowerneck -3.86067896023976 -17.332815186381733 14.33566689606324
upperneck -30.94810589411346 -22.838653692422945 2.1856315987333943
head -13.25575599833853 -6.87387217981942 -2.587755215350504
rclavicle 2.38542e-15 -1.58034e-14
rhumerus -3.814370677453354 -25.311580642515764 31.682520870713606
rradius 59.87846417734828
rwrist -27.76395865863941
rhand -27.27899105475031 -36.47135567711289
rfingers 5.438830403508645
rthumb 6.75546160386657 -69.16465812762166
lclavicle 2.38542e-15 -1.58034e-14
lhumerus 5.6954970556434565 34.87394832212174 -48.77926792237779
lradius 56.60424657574281
lwrist 28.41364637275779
lhand -14.892566747505644 -30.152922635282806
lfingers 9.626856369945285
lthumb 9.183953370033695 -4.7248648316241875
rfemur 1.6387394572433722 3.188890725534286 -0.2583076252083808
rtibia 51.789089246063334
rfoot 6.373980333205008 -15.275378323919929
rtoes 30.707358779970992
lfemur -12.753671638508445 -9.799370533280948 -3.0768334793289096
ltibia 50.46515501472028
lfoot 47.49909967190061 15.691587494460878
ltoes 4.47688
2133
root 11.1529 4.15172 10.6304 -82.5439 2.91446 168.791
lowerback -12.570846930221183 -3.3542199026861095 -4.380647164865851
upperback -7.8745204870129 -8.864087095569236 10.809185595603564
thorax -1.9834706326387415 -6.37524277323328 11.324308657731095
lowerneck -3.9513513800845503 -17.35654053007942 14.240822030025358
upperneck -30.859249518218036 -22.80205261023576 2.2159202535434894
head -13.285240494353971 -6.907304762187811 -2.6634749809877225
rclavicle 2.38542e-15 -1.58034e-14
rhumerus -1.6979432924054425 -21.316857049508677 33.311496944791735
rradius 57.04129775784975
rwrist -27.8259843502245
rhand -27.277753956571875 -36.41310181465685
rfingers 5.412880597635341
rthumb 6.8399613598199736 -69.17653454356102
lclavicle 2.38542e-15 -1.58034e-14
lhumerus 2.808680034620684 38.2088724621305 -51.18290868739952
lradius 55.50859920406128
lwrist 28.335298963415823
lhand -14.904454950942135 -30.124685509738057
lfingers 9.580172826800094
lthumb 9.203553548991822 -4.66117098370583
rfemur 1.1698703699879596 3.223150295517794 -0.1480633344251021
rtibia 52.360934989889024
rfoot 6.127859577843313 -15.425840847845269
rtoes 30.7304357274178
lfemur -12.978793350363533 -10.09134366611256 -3.5305338803866944
ltibia 52.96150453017048
lfoot 47.506483500752886 15.442373679882245
ltoes 4.47688
2134
root 11.1529 4.15172 10.6304 -82.5439 2.91446 168.791
lowerback -12.576488975441375 -3.4468734929622395 -4.431603198450613
upperback -7.886278919214251 -8.852779099305945 10.864355333330112
thorax -2.0355797426431104 -6.290883949911536 11.39295486121638
lowerneck -3.890265096839579 -17.344779587165895 14.23447389826874
upperneck -30.811764726662496 -22.703982818888452 2.1431627660990813
head -13.266063956644082 -6.878183211849384 -2.6188294400449887
rclavicle 2.38542e-15 -1.58034e-14
rhumerus -1.8333556098930228 -20.041007093711016 30.92019795607745
rradius 57.29200047135582
rwrist -27.787281362163533
rhand -27.28056093376605 -36.320121254114994
rfingers 5.350022068106184
rthumb 6.938842121837053 -69.1049016441407
lclavicle 2.38542e-15 -1.58034e-14
lhumerus 0.6025336873223153 38.73779815611379 -46.31019334974851
lradius 57.96317104576283
lwrist 28.299255521302058
lhand -14.916927381018409 -30.170655694302862
lfingers 9.554192137239351
lthumb 9.204138987566811 -4.664768729904147
rfemur 0.8225058547137477 3.346914456587813 -0.022189666674072184
rtibia 47.818596984486675
rfoot 5.702253356340109 -15.536911740167039
rtoes 31.1321362250834
lfemur -12.608259048615519 -10.325497154547206 -3.329739225687117
ltibia 56.32264716152724
lfoot 47.77137915635421 15.09787633942698
ltoes 4.47688
2135
root 11.1529 4.15172 10.6304 -82.5439 2.91446 168.791
lowerback -12.604982687328794 -3.4055151970664026 -4.398536294981746
upperback -7.794698787572556 -8.838677474521294 10.912683044807844
thorax -2.0541229847558937 -6.25287191311461 11.435212624080664
lowerneck -3.899389627768818 -17.27944627669923 14.264943254461146
upperneck -30.860869361026783 -22.608598477071684 2.097276529763219
head -13.223708929216015 -6.82964954721726 -2.537352493932295
rclavicle 2.38542e-15 -1.58034e-14
rhumerus -0.9293521859968075 -19.467101571696595 33.827305753349684
rradius 58.1425580795911
rwrist -27.701541410430814
rhand -27.196010380222454 -36.41596016084794
rfingers 5.309055460379393
rthumb 6.873840349580722 -69.06055120388328
lclavicle 2.38542e-15 -1.58034e-14
lhumerus -1.9507034904697975 36.44295669640849 -45.36331338975963
lradius 58.665868627451715
lwrist 28.239682254013246
lhand -14.82732926004001 -30.209460644900084
lfingers 9.513549696674762
lthumb 9.171578465302211 -4.631999531839489
rfemur 0.7540101196361001 2.9614020084045367 -0.19436774541582913
rtibia 51.29555753281672
rfoot 6.14833313790566 -15.714266963398574
rtoes 31.328489601242946
lfemur -12.284277987889588 -10.500493867537392 -3.0458467740126594
ltibia 57.59875311548951
lfoot 47.41836002975399 15.199588337373992
ltoes 4.47688
2136
root 11.1529 4.15172 10.6304 -82.5439 2.91446 168.791
lowerback -12.51048618031764 -3.459348684841348 -4.352872080050605
upperback -7.848103439671735 -8.8381339134797 10.961746027250928
thorax -2.0616569275001777 -6.304892805565955 11.376318916492595
lowerneck -3.9680601904660424 -17.3448688973066 14.3530336358997
upperneck -30.799030128084297 -22.607902418936767 2.1874889973832388
head -13.19925903013553 -6.863280891738344 -2.6200083616185097
rclavicle 2.38542e-15 -1.58034e-14
rhumerus -3.344155448177155 -20.369050786943316 37.67219239248293
rradius 58.752926221350336
rwrist -27.647944442208885
rhand -27.269916302271522 -36.40607217198919
rfingers 5.278230522062654
rthumb 6.939678904013473 -69.14723234472181
lclavicle 2.38542e-15 -1.58034e-14
lhumerus -4.230564779786549 36.0498268041015 -42.52219103244807
lradius 59.49588500589246
lwrist 28.203039549487546
lhand -14.88574539476609 -30.123715822727434
lfingers 9.462187095716889
lthumb 9.165104427449116 -4.615273150093085
rfemur 0.35364102042710255 2.5334313156213497 -0.38027837357215444
rtibia 55.23899358055076
rfoot 6.09648882171341 -16.0641613574665
rtoes 31.707198553376188
lfemur -11.805909434269747 -10.244178029923656 -3.139257518892982
ltibia 59.311506531570075
lfoot 47.77279777259206 14.727923183479186
ltoes 4.47688
